<svg xmlns="http://www.w3.org/2000/svg" viewBox="0 0 120 120" width="120" height="120">
	<defs>
		<linearGradient id="g" x1="0" y1="0" x2="1" y2="1">
			<stop offset="0%" stop-color="#ff3366" />
			<stop offset="50%" stop-color="#cc2255" />
			<stop offset="100%" stop-color="#990044" />
		</linearGradient>
	</defs>
	<!-- Aphrodite rose/heart -->
	<path d="M60 20 C60 10, 30 15, 30 40 C30 65, 60 100, 60 100 C60 100, 90 65, 90 40 C90 15, 60 10, 60 20Z"
		fill="url(#g)" opacity="0.9" />
	<!-- Inner highlight -->
	<path d="M60 30 C60 25, 42 30, 42 48 C42 65, 60 88, 60 88 C60 88, 78 65, 78 48 C78 30, 60 25, 60 30Z" fill="#ff6688"
		opacity="0.4" />
	<!-- Dot -->
	<circle cx="60" cy="42" r="6" fill="#ffccdd" opacity="0.8" />
</svg>
